<svg width="34" height="34" viewBox="0 0 34 34" fill="none" xmlns="http://www.w3.org/2000/svg">
<path d="M6.51761 24.4691L6.92521 25.4395C7.21271 25.3216 7.51213 25.2344 7.81837 25.1793L7.62839 24.1456C7.24754 24.214 6.87517 24.3225 6.51761 24.4691Z" fill="#00AAFF"/>
<path d="M3.72678 27.0755L4.68303 27.5333C5.01397 26.8585 5.51739 26.2808 6.1435 25.8574L5.54385 24.9904C4.76485 25.5173 4.13851 26.236 3.72678 27.0755Z" fill="#00AAFF"/>
<path d="M32.9375 26.7798C32.9381 25.8756 32.6008 25.0029 31.9904 24.3293L31.1987 25.0297C31.5128 25.3761 31.7279 25.7989 31.8219 26.2548H28.1562C28.0688 26.2548 27.9827 26.2761 27.9056 26.3169C27.8285 26.3577 27.7628 26.4166 27.7142 26.4885L25.747 29.4053H24.4375V27.83C24.4386 26.8555 24.8308 25.9213 25.5279 25.2322C26.2251 24.5431 27.1703 24.1555 28.1562 24.1544H29.2188C29.7412 24.1535 30.2521 24.3057 30.6871 24.5917L31.2755 23.7172C30.8167 23.4154 30.2955 23.2188 29.75 23.1418V21.529C29.75 21.3897 29.694 21.2562 29.5944 21.1577C29.4948 21.0592 29.3596 21.0039 29.2188 21.0039C28.6554 21.0033 28.1152 20.7818 27.7168 20.3881C27.3185 19.9943 27.0944 19.4604 27.0938 18.9036V16.8033H28.6875C28.8284 16.8033 28.9635 16.7479 29.0632 16.6495C29.1628 16.551 29.2188 16.4174 29.2188 16.2782V12.6026C29.2188 12.4633 29.1628 12.3298 29.0632 12.2313C28.9635 12.1328 28.8284 12.0775 28.6875 12.0775H27.7505C27.5285 12.0778 27.3076 12.1079 27.0938 12.167V11.5524C27.0938 11.4332 27.0527 11.3174 26.9773 11.2243L25.2392 9.07667C25.4669 8.69705 25.5488 8.24912 25.4699 7.81473C25.391 7.38035 25.1566 6.98853 24.8095 6.71089C24.4624 6.43324 24.0259 6.28832 23.5796 6.3026C23.1333 6.31687 22.7071 6.48941 22.379 6.78866C22.0508 7.08791 21.8425 7.49389 21.7922 7.93241C21.7419 8.37092 21.853 8.81269 22.105 9.17695C22.3571 9.54122 22.7334 9.80367 23.1651 9.91633C23.5968 10.029 24.0551 9.98433 24.4563 9.79052L26.0312 11.7366V12.3991L23.6957 11.6297C23.5427 11.5776 23.3819 11.5514 23.2201 11.5524H18.8381L16.316 8.64407C16.527 8.49917 16.6994 8.30596 16.8185 8.08093C16.9377 7.8559 16.9999 7.60573 17 7.35177V7.15119L17.7689 6.77123C17.8362 6.73793 17.8957 6.69085 17.9432 6.63311C17.9908 6.57537 18.0254 6.5083 18.0447 6.43634C18.064 6.36438 18.0677 6.28919 18.0553 6.21574C18.043 6.14229 18.015 6.07227 17.9733 6.01032L17.1007 4.71665C17.2218 4.69354 17.3311 4.62946 17.4096 4.53542C17.4882 4.44138 17.5312 4.32324 17.5312 4.20128C17.5303 3.36601 17.1941 2.56522 16.5966 1.9746C15.999 1.38397 15.1888 1.05174 14.3438 1.05078C13.3433 1.05078 12.417 1.33479 11.728 2.08729C11.4295 2.41385 11.2034 2.7985 11.0641 3.21654C10.9249 3.63459 10.8757 4.07679 10.9196 4.51475L11.0333 5.6379C11.0812 6.12217 11.3153 6.56977 11.6875 6.88826V16.8033C11.6872 17.1721 11.7859 17.5345 11.9734 17.8534H11.1562C10.9753 17.8534 10.7956 17.8839 10.625 17.9437V11.0274C10.6245 10.6097 10.4565 10.2093 10.1577 9.914C9.85889 9.61869 9.45379 9.45257 9.03125 9.45211H2.65625C2.23371 9.45257 1.82861 9.61869 1.52982 9.914C1.23104 10.2093 1.06297 10.6097 1.0625 11.0274V13.6528H2.125V12.6026H9.5625V17.8534H2.125V14.7029H1.0625V18.9904C1.06238 19.2364 1.14967 19.4746 1.30913 19.6634C1.46858 19.8523 1.69008 19.9798 1.93495 20.0237L6.90625 20.9171V22.1493C6.45584 22.2524 6.01601 22.3963 5.59234 22.5792H2.65625C2.51535 22.5792 2.38023 22.6345 2.2806 22.733C2.18097 22.8314 2.125 22.965 2.125 23.1043V25.5966C1.43087 26.7486 1.06382 28.0644 1.0625 29.4053C1.0625 29.5445 1.11847 29.6781 1.2181 29.7765C1.31773 29.875 1.45285 29.9303 1.59375 29.9303H4.02893C4.34641 30.706 4.89103 31.3703 5.59297 31.838C6.29491 32.3058 7.12219 32.5557 7.96875 32.5557C8.81531 32.5557 9.64259 32.3058 10.3445 31.838C11.0465 31.3703 11.5911 30.706 11.9086 29.9303H20.8409C21.211 29.9301 21.577 29.8536 21.9154 29.7057C22.2539 29.5577 22.5574 29.3416 22.8066 29.0712L23.375 28.4529V29.9303C23.375 30.0696 23.431 30.2032 23.5306 30.3016C23.6302 30.4001 23.7654 30.4554 23.9062 30.4554H25.007C25.4748 31.2562 26.1969 31.882 27.0612 32.2358C27.9255 32.5897 28.8838 32.6518 29.7875 32.4124C30.6912 32.1731 31.4897 31.6458 32.0592 30.9122C32.6287 30.1786 32.9375 29.2798 32.9375 28.3551C32.9379 27.9529 32.8796 27.5528 32.7644 27.1671C32.819 27.118 32.8626 27.0582 32.8924 26.9915C32.9222 26.9248 32.9375 26.8527 32.9375 26.7798ZM22.8438 8.1394C22.8438 7.98362 22.8905 7.83134 22.978 7.70182C23.0656 7.57229 23.1901 7.47134 23.3357 7.41173C23.4813 7.35212 23.6415 7.33652 23.7961 7.36691C23.9507 7.3973 24.0927 7.47231 24.2041 7.58246C24.3155 7.69262 24.3914 7.83296 24.4222 7.98574C24.4529 8.13852 24.4372 8.29689 24.3768 8.44081C24.3165 8.58473 24.2144 8.70774 24.0833 8.79428C23.9523 8.88083 23.7982 8.92702 23.6406 8.92702C23.4293 8.9268 23.2268 8.84374 23.0774 8.69608C22.928 8.54842 22.844 8.34822 22.8438 8.1394ZM15.2436 26.7798C14.7233 26.7792 14.2245 26.5747 13.8566 26.2111C13.4888 25.8475 13.2818 25.3545 13.2812 24.8402C13.2812 24.3247 13.4131 23.8426 13.7607 23.446C14.0705 23.0934 14.4982 22.8628 14.9658 22.7962C15.5302 22.7165 16.0467 22.4383 16.4204 22.0127C16.794 21.587 16.9998 21.0424 17 20.4788C17.0001 20.4098 16.9864 20.3415 16.9597 20.2778C16.9329 20.214 16.8937 20.1561 16.8443 20.1074C16.9346 19.9208 16.9867 19.7184 16.9978 19.5118C17.0088 19.3053 16.9785 19.0986 16.9086 18.9036H18.3515L16.0202 24.8944C15.9639 25.0387 15.9358 25.1922 15.9375 25.3468V26.7798H15.2436ZM17 25.7297H19.6562C19.7702 25.7298 19.8811 25.7661 19.9725 25.8332C20.064 25.9004 20.1312 25.9948 20.1642 26.1026C20.1972 26.2103 20.1943 26.3258 20.1559 26.4318C20.1175 26.5378 20.0456 26.6288 19.9509 26.6914C19.8174 26.7492 19.6732 26.7793 19.5274 26.7798H17V25.7297ZM21.1226 25.6378C21.017 25.3935 20.8507 25.1794 20.6391 25.0155C20.4275 24.8515 20.1776 24.743 19.9123 24.6999L22.1124 19.4646C22.3079 18.9993 22.3843 18.4935 22.3347 17.9921C22.285 17.4907 22.111 17.0091 21.828 16.59C21.545 16.171 21.1618 15.8275 20.7123 15.5899C20.2628 15.3523 19.7609 15.228 19.2512 15.228H17V14.3954L17.1556 14.5491C17.2049 14.5979 17.2635 14.6366 17.3279 14.663C17.3924 14.6894 17.4615 14.7029 17.5312 14.7029H22.9351C22.85 14.9405 22.8238 15.1948 22.8588 15.4445C22.8938 15.6941 22.9888 15.9318 23.1361 16.1376C23.2833 16.3434 23.4783 16.5113 23.7048 16.6271C23.9312 16.7429 24.1825 16.8033 24.4375 16.8033H24.439C24.0927 17.2571 23.9056 17.8101 23.9062 18.3785V22.4518C23.9054 22.7302 23.7936 22.997 23.595 23.1944L21.1226 25.6378ZM24.4375 15.7531C24.3324 15.7531 24.2297 15.7223 24.1424 15.6646C24.055 15.6069 23.9869 15.5249 23.9467 15.429C23.9065 15.333 23.896 15.2274 23.9165 15.1256C23.937 15.0237 23.9876 14.9302 24.0618 14.8567C24.1361 14.7833 24.2308 14.7333 24.3339 14.713C24.4369 14.6928 24.5437 14.7032 24.6408 14.7429C24.7379 14.7826 24.8208 14.8499 24.8792 14.9363C24.9376 15.0226 24.9688 15.1242 24.9688 15.228C24.9686 15.3672 24.9126 15.5007 24.813 15.5991C24.7134 15.6976 24.5783 15.7529 24.4375 15.7531ZM28.1562 13.1277V15.7531H27.0938V13.2912C27.2958 13.1843 27.5213 13.1281 27.7505 13.1277H28.1562ZM26.0312 15.228C26.0313 14.976 25.9702 14.7276 25.853 14.5038C25.7358 14.2799 25.566 14.0872 25.3578 13.9417C25.1496 13.7962 24.9091 13.7022 24.6565 13.6676C24.4039 13.6331 24.1466 13.659 23.9062 13.7431V12.8061L26.0312 13.5061V15.228ZM18.5938 12.6026H22.8438V13.6528H17.7513L14.7194 10.6561L13.9681 11.3987L15.9375 13.3451V15.228H12.75V8.92702H15.1619L18.1904 12.4193C18.2403 12.4768 18.3021 12.5229 18.3718 12.5546C18.4414 12.5862 18.5171 12.6026 18.5938 12.6026ZM12.5158 2.79196C13.0014 2.26156 13.6459 2.10095 14.3438 2.10095C14.8147 2.10154 15.2722 2.25649 15.6446 2.54153C16.0169 2.82658 16.2832 3.22563 16.4015 3.6762H14.3438C14.2029 3.6762 14.0677 3.73152 13.9681 3.82999C13.8685 3.92846 13.8125 4.06202 13.8125 4.20128V5.44835C13.8117 5.66672 13.7262 5.87649 13.5737 6.03445C13.4211 6.19241 13.2131 6.28655 12.9925 6.29749C12.7718 6.30842 12.5553 6.23532 12.3875 6.09323C12.2197 5.95114 12.1135 5.75088 12.0906 5.53368L11.9769 4.41052C11.9458 4.11841 11.9777 3.82309 12.0706 3.54408C12.1635 3.26507 12.3152 3.00871 12.5158 2.79196ZM12.9492 7.35177C13.4598 7.35125 13.9493 7.15055 14.3104 6.7937C14.6714 6.43685 14.8745 5.95301 14.875 5.44835V4.72636H15.9375C15.9375 4.83004 15.9685 4.9314 16.0267 5.01765L16.7554 6.09814L16.2308 6.35727C16.1427 6.40091 16.0686 6.46793 16.0168 6.55083C15.9649 6.63374 15.9375 6.72925 15.9375 6.82669V7.35177C15.9373 7.49099 15.8813 7.62445 15.7817 7.72289C15.6821 7.82133 15.5471 7.8767 15.4062 7.87686H12.75V7.34147C12.8162 7.34825 12.8827 7.35169 12.9492 7.35177ZM12.75 16.8033V16.2782H19.2512C19.5861 16.2782 19.9159 16.3599 20.2112 16.516C20.5065 16.6721 20.7584 16.8979 20.9443 17.1732C21.1302 17.4486 21.2446 17.765 21.2771 18.0945C21.3097 18.424 21.2595 18.7563 21.1311 19.062L18.7704 24.6795H17.2423L19.6209 18.567C19.6518 18.4875 19.6627 18.4017 19.6526 18.3171C19.6425 18.2324 19.6117 18.1515 19.5629 18.0812C19.5141 18.011 19.4487 17.9535 19.3724 17.9139C19.2961 17.8742 19.2112 17.8534 19.125 17.8534H13.8125C13.5308 17.8531 13.2608 17.7424 13.0616 17.5455C12.8624 17.3486 12.7503 17.0817 12.75 16.8033ZM11.1562 18.9036H15.4062C15.5471 18.9036 15.6823 18.9589 15.7819 19.0574C15.8815 19.1559 15.9375 19.2894 15.9375 19.4287C15.9375 19.5679 15.8815 19.7015 15.7819 19.8C15.6823 19.8984 15.5471 19.9538 15.4062 19.9538H11.1562C11.0154 19.9538 10.8802 19.8984 10.7806 19.8C10.681 19.7015 10.625 19.5679 10.625 19.4287C10.625 19.2894 10.681 19.1559 10.7806 19.0574C10.8802 18.9589 11.0154 18.9036 11.1562 18.9036ZM2.125 11.5524V11.0274C2.12516 10.8881 2.18118 10.7547 2.28077 10.6562C2.38037 10.5578 2.5154 10.5024 2.65625 10.5023H9.03125C9.1721 10.5024 9.30713 10.5578 9.40673 10.6562C9.50632 10.7547 9.56234 10.8881 9.5625 11.0274V11.5524H2.125ZM2.125 18.9036H9.5625V19.9538H7.48538L2.125 18.9904V18.9036ZM3.84426 23.6293C3.61366 23.8144 3.39435 24.0128 3.1875 24.2235V23.6293H3.84426ZM7.96875 31.5056C7.40983 31.5031 6.86124 31.3565 6.37723 31.0802C5.89322 30.8039 5.49055 30.4076 5.20904 29.9303H6.56452C6.9522 30.2687 7.45157 30.4554 7.96875 30.4554C8.48593 30.4554 8.9853 30.2687 9.37298 29.9303H10.7285C10.447 30.4076 10.0443 30.8039 9.56027 31.0802C9.07626 31.3565 8.52767 31.5031 7.96875 31.5056ZM22.0203 28.3649C21.8708 28.5272 21.6887 28.6568 21.4856 28.7455C21.2825 28.8342 21.063 28.8801 20.8409 28.8802H2.14698C2.26123 27.5093 2.81959 26.2114 3.7392 25.179C4.6588 24.1466 5.89066 23.4348 7.25196 23.1492C7.38929 23.1196 7.52939 23.1046 7.66992 23.1043H11.1562V22.0541H7.96875V21.0039H15.8246C15.7346 21.2036 15.5948 21.3774 15.4182 21.5091C15.2417 21.6408 15.0342 21.7261 14.8152 21.7569C14.0946 21.8593 13.4353 22.2147 12.9579 22.758C12.4438 23.343 12.2188 24.075 12.2188 24.8403C12.2183 25.5518 12.4757 26.2399 12.9444 26.7798H8.5V27.83H19.5274C20.0902 27.8259 20.6292 27.6052 21.03 27.2148L24.3463 23.937C24.7435 23.5422 24.9671 23.0086 24.9688 22.4518V18.3785C24.9691 18.0528 25.0715 17.7353 25.2617 17.4693C25.4519 17.2034 25.7207 17.0022 26.0312 16.8933V18.9036C26.0322 19.6479 26.2993 20.3679 26.7854 20.9364C27.2714 21.5049 27.9452 21.8853 28.6875 22.0103V23.1043C28.3577 23.1043 28.0202 23.0846 27.6923 23.1269C26.6985 23.2243 25.7603 23.6263 25.0089 24.2765C24.2576 24.9267 23.7306 25.7928 23.5016 26.7536L22.0203 28.3649ZM28.4405 27.3049H28.4675L29.1087 27.9388C29.2202 28.0494 29.2829 28.199 29.2832 28.3551C29.2832 28.4715 29.2482 28.5854 29.1828 28.6822C29.1173 28.779 29.0243 28.8545 28.9155 28.899C28.8066 28.9436 28.6868 28.9553 28.5713 28.9326C28.4557 28.9098 28.3496 28.8538 28.2663 28.7714L27.7773 28.2882L28.4405 27.3049ZM28.6875 31.5056C28.2272 31.5041 27.7726 31.4047 27.3546 31.2141C26.9366 31.0234 26.5651 30.7461 26.2653 30.4008C26.3494 30.3603 26.4212 30.2984 26.4733 30.2216L26.9338 29.539C27.1896 29.9098 27.5589 30.1898 27.9875 30.338C28.4161 30.4861 28.8815 30.4946 29.3153 30.3622C29.7492 30.2297 30.1287 29.9634 30.3981 29.6022C30.6676 29.2409 30.8128 28.8039 30.8125 28.3551C30.8133 28.0439 30.7432 27.7366 30.6074 27.4559C30.5826 27.4042 30.5553 27.3542 30.5266 27.3049H31.6934C31.863 27.7802 31.9148 28.2887 31.8446 28.7878C31.7743 29.287 31.584 29.7622 31.2896 30.1736C30.9952 30.585 30.6052 30.9207 30.1525 31.1525C29.6997 31.3842 29.1974 31.5053 28.6875 31.5056Z" fill="#00AAFF"/>
<path d="M4.25 13.6522H3.1875V16.8027H4.25V13.6522Z" fill="#00AAFF"/>
</svg>
