<svg width="34" height="34" viewBox="0 0 34 34" fill="none" xmlns="http://www.w3.org/2000/svg">
<path d="M32.4062 28.1563H28.6875V17.4842C29.016 17.4166 29.3259 17.2783 29.5956 17.079C29.8653 16.8796 30.0884 16.6238 30.2492 16.3295C30.4101 16.0353 30.505 15.7095 30.5273 15.3748C30.5495 15.0401 30.4987 14.7046 30.3782 14.3916L28.6875 9.99487V1.59381C28.6875 1.52404 28.6738 1.45495 28.6471 1.39049C28.6204 1.32603 28.5813 1.26745 28.5319 1.21812C28.4826 1.16878 28.424 1.12965 28.3596 1.10296C28.2951 1.07627 28.226 1.06254 28.1562 1.06256H5.84375C5.77398 1.06254 5.70489 1.07627 5.64043 1.10296C5.57597 1.12965 5.51739 1.16878 5.46806 1.21812C5.41872 1.26745 5.37959 1.32603 5.3529 1.39049C5.32621 1.45495 5.31248 1.52404 5.3125 1.59381V9.99487L3.6218 14.3916C3.50132 14.7046 3.45045 15.0401 3.47272 15.3748C3.49499 15.7095 3.58987 16.0353 3.75076 16.3295C3.91165 16.6238 4.1347 16.8796 4.40439 17.079C4.67409 17.2783 4.98397 17.4166 5.3125 17.4842V28.1563H1.59375C1.52398 28.1563 1.45489 28.17 1.39043 28.1967C1.32597 28.2234 1.26739 28.2625 1.21806 28.3119C1.16872 28.3612 1.12959 28.4198 1.1029 28.4842C1.07621 28.5487 1.06248 28.6178 1.0625 28.6876V32.4063C1.06248 32.4761 1.07621 32.5452 1.1029 32.6096C1.12959 32.6741 1.16872 32.7327 1.21806 32.782C1.26739 32.8313 1.32597 32.8705 1.39043 32.8972C1.45489 32.9239 1.52398 32.9376 1.59375 32.9376H32.4062C32.476 32.9376 32.5451 32.9239 32.6096 32.8972C32.674 32.8705 32.7326 32.8313 32.7819 32.782C32.8313 32.7327 32.8704 32.6741 32.8971 32.6096C32.9238 32.5452 32.9375 32.4761 32.9375 32.4063V28.6876C32.9375 28.6178 32.9238 28.5487 32.8971 28.4842C32.8704 28.4198 32.8313 28.3612 32.7819 28.3119C32.7326 28.2625 32.674 28.2234 32.6096 28.1967C32.5451 28.17 32.476 28.1563 32.4062 28.1563ZM26.5625 28.1563V16.8254C26.8532 17.1268 27.2205 17.3432 27.625 17.4516V28.1563H26.5625ZM22.3125 28.6876V31.8751H20.1875V28.1563H21.25C21.3909 28.1563 21.526 28.1003 21.6256 28.0007C21.7253 27.9011 21.7812 27.766 21.7812 27.6251V26.0313C21.7812 25.8904 21.7253 25.7553 21.6256 25.6557C21.526 25.556 21.3909 25.5001 21.25 25.5001H18.0625C17.9216 25.5001 17.7865 25.556 17.6869 25.6557C17.5872 25.7553 17.5313 25.8904 17.5312 26.0313V27.6251C17.5313 27.766 17.5872 27.9011 17.6869 28.0007C17.7865 28.1003 17.9216 28.1563 18.0625 28.1563H19.125V31.8751H17V28.6876C17 28.6178 16.9863 28.5487 16.9596 28.4842C16.9329 28.4198 16.8938 28.3612 16.8444 28.3119C16.7951 28.2625 16.7365 28.2234 16.6721 28.1967C16.6076 28.17 16.5385 28.1563 16.4688 28.1563H15.4062V26.5626C15.4063 26.4928 15.3925 26.4237 15.3658 26.3592C15.3392 26.2948 15.3 26.2362 15.2507 26.1869C15.2014 26.1375 15.1428 26.0984 15.0783 26.0717C15.0139 26.045 14.9448 26.0313 14.875 26.0313H13.8125V17.4828C14.3275 17.3762 14.7907 17.097 15.1254 16.6913C15.1579 16.7318 15.1924 16.771 15.2289 16.8095C15.444 17.0385 15.7039 17.2208 15.9925 17.345C16.2811 17.4692 16.5922 17.5326 16.9064 17.5313H17.0936C17.4078 17.5326 17.7189 17.4692 18.0075 17.345C18.2961 17.2208 18.556 17.0385 18.771 16.8095C18.8076 16.771 18.8421 16.7318 18.8746 16.6913C18.9514 16.7837 19.0351 16.8702 19.125 16.9498V18.5938C18.4207 18.5945 17.7455 18.8746 17.2475 19.3726C16.7495 19.8706 16.4695 20.5458 16.4687 21.2501C16.4687 21.3198 16.4825 21.3889 16.5091 21.4534C16.5358 21.5178 16.575 21.5764 16.6243 21.6258C16.6736 21.6751 16.7322 21.7142 16.7967 21.7409C16.8611 21.7676 16.9302 21.7813 17 21.7813H22.3125C22.3823 21.7813 22.4514 21.7676 22.5158 21.7409C22.5803 21.7142 22.6389 21.6751 22.6882 21.6258C22.7375 21.5764 22.7767 21.5178 22.8033 21.4534C22.83 21.3889 22.8438 21.3198 22.8437 21.2501C22.843 20.5458 22.563 19.8706 22.065 19.3726C21.567 18.8746 20.8918 18.5945 20.1875 18.5938V17.4828C20.3419 17.5152 20.4992 17.5314 20.657 17.5313H20.823C21.1583 17.5316 21.4896 17.4587 21.7938 17.3179C22.0981 17.1771 22.368 16.9716 22.5848 16.7158C22.5987 16.6999 22.612 16.6833 22.6246 16.6667C22.841 16.9374 23.1157 17.1557 23.4282 17.3054C23.7407 17.4552 24.083 17.5324 24.4295 17.5313H24.5325C24.8663 17.5319 25.1964 17.4603 25.5 17.3215V26.0313H24.4375C24.3677 26.0313 24.2986 26.045 24.2342 26.0717C24.1697 26.0984 24.1111 26.1375 24.0618 26.1869C24.0125 26.2362 23.9733 26.2948 23.9467 26.3592C23.92 26.4237 23.9062 26.4928 23.9062 26.5626V28.1563H22.8438C22.774 28.1563 22.7049 28.17 22.6404 28.1967C22.576 28.2234 22.5174 28.2625 22.4681 28.3119C22.4187 28.3612 22.3796 28.4198 22.3529 28.4842C22.3262 28.5487 22.3125 28.6178 22.3125 28.6876ZM18.5938 27.0938V26.5626H20.7188V27.0938H18.5938ZM8.26359 14.893L9.43633 10.6251H11.5925L10.8016 15.4242C10.7543 15.7164 10.6043 15.9821 10.3786 16.1735C10.153 16.365 9.86642 16.4697 9.57047 16.4688H9.46754C9.27573 16.4687 9.08651 16.4245 8.91458 16.3394C8.74265 16.2544 8.59263 16.1308 8.47618 15.9784C8.35973 15.826 8.27997 15.6488 8.2431 15.4605C8.20623 15.2723 8.21324 15.0781 8.26359 14.893ZM8.5 17.3215C8.80362 17.4603 9.13367 17.5319 9.46754 17.5313H9.57047C9.917 17.5324 10.2593 17.4552 10.5718 17.3054C10.8843 17.1557 11.159 16.9374 11.3754 16.6667C11.388 16.6833 11.4013 16.6999 11.4152 16.7158C11.7578 17.1201 12.2292 17.394 12.75 17.4915V20.1876H8.5V17.3215ZM13.177 16.4688C12.9959 16.4689 12.817 16.4295 12.6526 16.3535C12.4883 16.2775 12.3425 16.1666 12.2253 16.0285C12.1082 15.8904 12.0225 15.7285 11.9742 15.554C11.926 15.3794 11.9163 15.1965 11.9458 15.0178L12.6696 10.6251H14.8451L14.5888 15.2894C14.5713 15.608 14.4324 15.9078 14.2007 16.1272C13.969 16.3465 13.6621 16.4688 13.343 16.4688H13.177ZM17.9994 16.079C17.8832 16.2026 17.7429 16.301 17.587 16.3681C17.4312 16.4351 17.2633 16.4694 17.0936 16.4688H16.9064C16.7371 16.4688 16.5695 16.4343 16.4139 16.3675C16.2584 16.3006 16.118 16.2028 16.0015 16.08C15.8849 15.9571 15.7946 15.8119 15.736 15.653C15.6774 15.4942 15.6517 15.325 15.6606 15.156L15.909 10.6251H18.0911L18.3394 15.1526V15.156C18.3491 15.3249 18.3239 15.494 18.2654 15.6528C18.207 15.8116 18.1164 15.9567 17.9994 16.079ZM19.4112 15.2894L19.1549 10.6251H21.3304L22.0542 15.0178C22.0837 15.1965 22.0741 15.3794 22.0258 15.554C21.9775 15.7285 21.8918 15.8904 21.7747 16.0285C21.6575 16.1666 21.5117 16.2775 21.3474 16.3535C21.183 16.4295 21.0041 16.4689 20.823 16.4688H20.657C20.3379 16.4688 20.031 16.3465 19.7993 16.1272C19.5676 15.9078 19.4287 15.608 19.4112 15.2894V15.2894ZM20.1875 19.6563C20.517 19.6567 20.8383 19.759 21.1074 19.9493C21.3764 20.1395 21.58 20.4083 21.6903 20.7188H17.6222C17.7325 20.4083 17.9361 20.1395 18.2051 19.9493C18.4742 19.759 18.7955 19.6567 19.125 19.6563H20.1875ZM25.5246 15.9774C25.4087 16.1307 25.2587 16.2549 25.0865 16.3402C24.9143 16.4255 24.7246 16.4695 24.5325 16.4688H24.4295C24.1336 16.4697 23.847 16.365 23.6214 16.1735C23.3957 15.9821 23.2457 15.7164 23.1984 15.4242L22.4075 10.6251H24.5637L25.7357 14.8903C25.7357 14.891 25.7364 14.8923 25.7364 14.893C25.7874 15.0778 25.7947 15.2719 25.758 15.4601C25.7212 15.6483 25.6413 15.8253 25.5246 15.9774ZM24.9688 27.0938H25.5V28.1563H24.9688V27.0938ZM29.3868 14.7728C29.4595 14.9618 29.4851 15.1657 29.4614 15.3669C29.4377 15.568 29.3654 15.7604 29.2508 15.9274C29.1361 16.0943 28.9825 16.2309 28.8033 16.3252C28.624 16.4195 28.4245 16.4688 28.222 16.4688C27.9488 16.4682 27.6834 16.3782 27.4661 16.2127C27.2488 16.0471 27.0917 15.815 27.0187 15.5517L25.6654 10.6251H27.7917L29.3868 14.7728ZM6.375 2.12506H27.625V9.56256H6.375V2.12506ZM4.74937 15.9276C4.63329 15.7612 4.56011 15.5688 4.53636 15.3673C4.51261 15.1658 4.53902 14.9616 4.61324 14.7728L6.20832 10.6251H8.33465L6.98129 15.5517C6.90827 15.815 6.75115 16.0471 6.53389 16.2127C6.31664 16.3782 6.05117 16.4682 5.77801 16.4688C5.57524 16.4703 5.37525 16.4217 5.1958 16.3272C5.01635 16.2328 4.863 16.0956 4.74937 15.9276ZM6.375 17.4516C6.77946 17.3432 7.14677 17.1268 7.4375 16.8254V28.1563H6.375V17.4516ZM10.625 31.8751H2.125V29.2188H10.625V31.8751ZM11.1562 28.1563H8.5V21.2501H12.75V31.8751H11.6875V28.6876C11.6875 28.6178 11.6738 28.5487 11.6471 28.4842C11.6204 28.4198 11.5813 28.3612 11.5319 28.3119C11.4826 28.2625 11.424 28.2234 11.3596 28.1967C11.2951 28.17 11.226 28.1563 11.1562 28.1563ZM13.8125 27.0938H14.3438V28.6876C14.3437 28.7573 14.3575 28.8264 14.3842 28.8909C14.4108 28.9553 14.45 29.0139 14.4993 29.0633C14.5486 29.1126 14.6072 29.1517 14.6717 29.1784C14.7361 29.2051 14.8052 29.2188 14.875 29.2188H15.9375V31.8751H13.8125V27.0938ZM31.875 31.8751H23.375V29.2188H31.875V31.8751Z" fill="#FF2222"/>
<path d="M20.7188 6.37506H20.1424C20.031 5.72306 19.72 5.1217 19.2523 4.654C18.7846 4.18629 18.1832 3.87529 17.5312 3.76393V3.18756C17.5312 3.04666 17.4753 2.91154 17.3757 2.81191C17.276 2.71228 17.1409 2.65631 17 2.65631C16.8591 2.65631 16.724 2.71228 16.6243 2.81191C16.5247 2.91154 16.4688 3.04666 16.4688 3.18756V3.76393C15.8168 3.87529 15.2154 4.18629 14.7477 4.654C14.28 5.1217 13.969 5.72306 13.8576 6.37506H13.2812C13.1404 6.37506 13.0052 6.43103 12.9056 6.53066C12.806 6.63029 12.75 6.76542 12.75 6.90631C12.7506 7.4697 12.9747 8.00983 13.3731 8.40821C13.7715 8.80658 14.3116 9.03067 14.875 9.03131H19.125C19.6884 9.03067 20.2285 8.80658 20.6269 8.40821C21.0253 8.00983 21.2494 7.4697 21.25 6.90631C21.25 6.76542 21.194 6.63029 21.0944 6.53066C20.9948 6.43103 20.8596 6.37506 20.7188 6.37506ZM17 4.78131C17.471 4.78192 17.9285 4.93869 18.3008 5.22708C18.6732 5.51547 18.9394 5.9192 19.0578 6.37506H14.9422C15.0606 5.9192 15.3268 5.51547 15.6992 5.22708C16.0715 4.93869 16.529 4.78192 17 4.78131ZM19.125 7.96881H14.875C14.6885 7.96871 14.5054 7.91957 14.3439 7.82633C14.1825 7.73308 14.0484 7.59901 13.9551 7.43756H20.0449C19.9516 7.59901 19.8175 7.73308 19.6561 7.82633C19.4946 7.91957 19.3115 7.96871 19.125 7.96881Z" fill="#FF2222"/>
<path d="M13.0447 5.22333C13.1174 5.17482 13.1771 5.10909 13.2184 5.03198C13.2597 4.95487 13.2813 4.86877 13.2812 4.78131V3.18756H12.2188V4.47794C12.0502 4.56397 11.8718 4.62922 11.6875 4.67225V3.18756H10.625V4.67225C10.4407 4.62921 10.2623 4.56397 10.0938 4.47795V3.18756H9.03125V4.78131C9.03125 4.86877 9.05284 4.95487 9.09411 5.03198C9.13538 5.10909 9.19505 5.17482 9.26782 5.22333C9.67658 5.49627 10.1396 5.67749 10.625 5.75455V9.03131H11.6875V5.75455C12.1729 5.67749 12.6359 5.49627 13.0447 5.22333Z" fill="#FF2222"/>
<path d="M22.8436 2.65631C22.3264 2.65634 21.8269 2.845 21.4388 3.18693C21.0508 3.52886 20.8007 4.00058 20.7355 4.51368C20.6704 5.02678 20.7946 5.54603 21.0848 5.97412C21.3751 6.40221 21.8116 6.70973 22.3124 6.83906V9.03131H23.3749V6.83906C23.8757 6.70973 24.3121 6.40221 24.6024 5.97412C24.8926 5.54603 25.0168 5.02678 24.9517 4.51368C24.8865 4.00058 24.6364 3.52886 24.2484 3.18693C23.8603 2.845 23.3608 2.65634 22.8436 2.65631ZM22.8436 5.84381C22.6335 5.84381 22.428 5.7815 22.2533 5.66475C22.0786 5.548 21.9424 5.38206 21.862 5.18791C21.7816 4.99377 21.7605 4.78013 21.8015 4.57403C21.8425 4.36792 21.9437 4.1786 22.0923 4.03001C22.2409 3.88142 22.4302 3.78022 22.6363 3.73923C22.8424 3.69823 23.0561 3.71927 23.2502 3.79969C23.4444 3.88011 23.6103 4.01629 23.727 4.19102C23.8438 4.36574 23.9061 4.57117 23.9061 4.78131C23.9058 5.063 23.7937 5.33307 23.5946 5.53226C23.3954 5.73144 23.1253 5.84349 22.8436 5.84381Z" fill="#FF2222"/>
</svg>
